<mxfile host="Electron" agent="Mozilla/5.0 (Macintosh; Intel Mac OS X 10_15_7) AppleWebKit/537.36 (KHTML, like Gecko) draw.io/26.0.9 Chrome/128.0.6613.186 Electron/32.2.5 Safari/537.36" version="26.0.9">
  <diagram name="第 1 页" id="H6SDxL65d7HfA8_Dshjm">
    <mxGraphModel dx="1434" dy="854" grid="1" gridSize="10" guides="1" tooltips="1" connect="1" arrows="1" fold="1" page="1" pageScale="1" pageWidth="1169" pageHeight="827" math="0" shadow="0">
      <root>
        <mxCell id="0" />
        <mxCell id="1" parent="0" />
        <mxCell id="Cuiy6yaqhkZlzU2exh9V-1" value="ARTIST" style="whiteSpace=wrap;html=1;align=center;" vertex="1" parent="1">
          <mxGeometry x="960" y="650" width="100" height="40" as="geometry" />
        </mxCell>
        <mxCell id="Cuiy6yaqhkZlzU2exh9V-3" value="&lt;u&gt;ArtistId&lt;/u&gt;" style="ellipse;whiteSpace=wrap;html=1;align=center;" vertex="1" parent="1">
          <mxGeometry x="890" y="730" width="100" height="40" as="geometry" />
        </mxCell>
        <mxCell id="Cuiy6yaqhkZlzU2exh9V-4" value="Name" style="ellipse;whiteSpace=wrap;html=1;align=center;" vertex="1" parent="1">
          <mxGeometry x="1040" y="730" width="100" height="40" as="geometry" />
        </mxCell>
        <mxCell id="Cuiy6yaqhkZlzU2exh9V-5" value="" style="endArrow=none;html=1;rounded=0;exitX=0.5;exitY=0;exitDx=0;exitDy=0;entryX=0.25;entryY=1;entryDx=0;entryDy=0;" edge="1" parent="1" source="Cuiy6yaqhkZlzU2exh9V-3" target="Cuiy6yaqhkZlzU2exh9V-1">
          <mxGeometry width="50" height="50" relative="1" as="geometry">
            <mxPoint x="1390" y="700" as="sourcePoint" />
            <mxPoint x="1440" y="650" as="targetPoint" />
          </mxGeometry>
        </mxCell>
        <mxCell id="Cuiy6yaqhkZlzU2exh9V-6" value="" style="endArrow=none;html=1;rounded=0;exitX=0.5;exitY=0;exitDx=0;exitDy=0;entryX=0.75;entryY=1;entryDx=0;entryDy=0;" edge="1" parent="1" source="Cuiy6yaqhkZlzU2exh9V-4" target="Cuiy6yaqhkZlzU2exh9V-1">
          <mxGeometry width="50" height="50" relative="1" as="geometry">
            <mxPoint x="950" y="740" as="sourcePoint" />
            <mxPoint x="1005" y="680" as="targetPoint" />
          </mxGeometry>
        </mxCell>
        <mxCell id="Cuiy6yaqhkZlzU2exh9V-7" value="ALBUM" style="whiteSpace=wrap;html=1;align=center;" vertex="1" parent="1">
          <mxGeometry x="665" y="650" width="100" height="40" as="geometry" />
        </mxCell>
        <mxCell id="Cuiy6yaqhkZlzU2exh9V-8" value="&lt;u&gt;AlbumId&lt;/u&gt;" style="ellipse;whiteSpace=wrap;html=1;align=center;" vertex="1" parent="1">
          <mxGeometry x="555" y="730" width="100" height="40" as="geometry" />
        </mxCell>
        <mxCell id="Cuiy6yaqhkZlzU2exh9V-9" value="Title" style="ellipse;whiteSpace=wrap;html=1;align=center;" vertex="1" parent="1">
          <mxGeometry x="665" y="730" width="100" height="40" as="geometry" />
        </mxCell>
        <mxCell id="Cuiy6yaqhkZlzU2exh9V-10" value="" style="endArrow=none;html=1;rounded=0;exitX=0.5;exitY=0;exitDx=0;exitDy=0;entryX=0.25;entryY=1;entryDx=0;entryDy=0;" edge="1" parent="1" source="Cuiy6yaqhkZlzU2exh9V-8" target="Cuiy6yaqhkZlzU2exh9V-7">
          <mxGeometry width="50" height="50" relative="1" as="geometry">
            <mxPoint x="1095" y="700" as="sourcePoint" />
            <mxPoint x="1145" y="650" as="targetPoint" />
          </mxGeometry>
        </mxCell>
        <mxCell id="Cuiy6yaqhkZlzU2exh9V-11" value="" style="endArrow=none;html=1;rounded=0;exitX=0.5;exitY=0;exitDx=0;exitDy=0;entryX=0.5;entryY=1;entryDx=0;entryDy=0;" edge="1" parent="1" source="Cuiy6yaqhkZlzU2exh9V-9" target="Cuiy6yaqhkZlzU2exh9V-7">
          <mxGeometry width="50" height="50" relative="1" as="geometry">
            <mxPoint x="655" y="740" as="sourcePoint" />
            <mxPoint x="710" y="680" as="targetPoint" />
          </mxGeometry>
        </mxCell>
        <mxCell id="Cuiy6yaqhkZlzU2exh9V-12" value="ArtistId" style="ellipse;whiteSpace=wrap;html=1;align=center;" vertex="1" parent="1">
          <mxGeometry x="775" y="730" width="100" height="40" as="geometry" />
        </mxCell>
        <mxCell id="Cuiy6yaqhkZlzU2exh9V-13" value="" style="endArrow=none;html=1;rounded=0;exitX=0.5;exitY=0;exitDx=0;exitDy=0;entryX=0.75;entryY=1;entryDx=0;entryDy=0;" edge="1" parent="1" source="Cuiy6yaqhkZlzU2exh9V-12" target="Cuiy6yaqhkZlzU2exh9V-7">
          <mxGeometry width="50" height="50" relative="1" as="geometry">
            <mxPoint x="575" y="740" as="sourcePoint" />
            <mxPoint x="700" y="700" as="targetPoint" />
          </mxGeometry>
        </mxCell>
        <mxCell id="Cuiy6yaqhkZlzU2exh9V-14" value="TRACK" style="whiteSpace=wrap;html=1;align=center;" vertex="1" parent="1">
          <mxGeometry x="525" y="409" width="100" height="40" as="geometry" />
        </mxCell>
        <mxCell id="Cuiy6yaqhkZlzU2exh9V-15" value="&lt;u&gt;TrackId&lt;/u&gt;" style="ellipse;whiteSpace=wrap;html=1;align=center;" vertex="1" parent="1">
          <mxGeometry x="385" y="499" width="100" height="40" as="geometry" />
        </mxCell>
        <mxCell id="Cuiy6yaqhkZlzU2exh9V-16" value="Name" style="ellipse;whiteSpace=wrap;html=1;align=center;" vertex="1" parent="1">
          <mxGeometry x="525" y="499" width="100" height="40" as="geometry" />
        </mxCell>
        <mxCell id="Cuiy6yaqhkZlzU2exh9V-17" value="" style="endArrow=none;html=1;rounded=0;exitX=0.5;exitY=0;exitDx=0;exitDy=0;entryX=0.25;entryY=1;entryDx=0;entryDy=0;" edge="1" parent="1" source="Cuiy6yaqhkZlzU2exh9V-15" target="Cuiy6yaqhkZlzU2exh9V-14">
          <mxGeometry width="50" height="50" relative="1" as="geometry">
            <mxPoint x="745" y="469" as="sourcePoint" />
            <mxPoint x="795" y="419" as="targetPoint" />
          </mxGeometry>
        </mxCell>
        <mxCell id="Cuiy6yaqhkZlzU2exh9V-18" value="" style="endArrow=none;html=1;rounded=0;exitX=0.5;exitY=0;exitDx=0;exitDy=0;entryX=0.5;entryY=1;entryDx=0;entryDy=0;" edge="1" parent="1" source="Cuiy6yaqhkZlzU2exh9V-16" target="Cuiy6yaqhkZlzU2exh9V-14">
          <mxGeometry width="50" height="50" relative="1" as="geometry">
            <mxPoint x="305" y="509" as="sourcePoint" />
            <mxPoint x="360" y="449" as="targetPoint" />
          </mxGeometry>
        </mxCell>
        <mxCell id="Cuiy6yaqhkZlzU2exh9V-19" value="AlbumId" style="ellipse;whiteSpace=wrap;html=1;align=center;" vertex="1" parent="1">
          <mxGeometry x="665" y="499" width="100" height="40" as="geometry" />
        </mxCell>
        <mxCell id="Cuiy6yaqhkZlzU2exh9V-20" value="" style="endArrow=none;html=1;rounded=0;exitX=0.5;exitY=0;exitDx=0;exitDy=0;entryX=0.75;entryY=1;entryDx=0;entryDy=0;" edge="1" parent="1" source="Cuiy6yaqhkZlzU2exh9V-19" target="Cuiy6yaqhkZlzU2exh9V-14">
          <mxGeometry width="50" height="50" relative="1" as="geometry">
            <mxPoint x="225" y="509" as="sourcePoint" />
            <mxPoint x="350" y="469" as="targetPoint" />
          </mxGeometry>
        </mxCell>
        <mxCell id="Cuiy6yaqhkZlzU2exh9V-21" value="MediaTypeId" style="ellipse;whiteSpace=wrap;html=1;align=center;" vertex="1" parent="1">
          <mxGeometry x="725" y="419" width="100" height="40" as="geometry" />
        </mxCell>
        <mxCell id="Cuiy6yaqhkZlzU2exh9V-22" value="GenreId" style="ellipse;whiteSpace=wrap;html=1;align=center;" vertex="1" parent="1">
          <mxGeometry x="605" y="289" width="100" height="40" as="geometry" />
        </mxCell>
        <mxCell id="Cuiy6yaqhkZlzU2exh9V-23" value="Composer" style="ellipse;whiteSpace=wrap;html=1;align=center;" vertex="1" parent="1">
          <mxGeometry x="725" y="329" width="100" height="40" as="geometry" />
        </mxCell>
        <mxCell id="Cuiy6yaqhkZlzU2exh9V-24" value="Milliseconds" style="ellipse;whiteSpace=wrap;html=1;align=center;" vertex="1" parent="1">
          <mxGeometry x="455" y="289" width="100" height="40" as="geometry" />
        </mxCell>
        <mxCell id="Cuiy6yaqhkZlzU2exh9V-25" value="Bytes" style="ellipse;whiteSpace=wrap;html=1;align=center;" vertex="1" parent="1">
          <mxGeometry x="345" y="329" width="100" height="40" as="geometry" />
        </mxCell>
        <mxCell id="Cuiy6yaqhkZlzU2exh9V-26" value="UnitPrice" style="ellipse;whiteSpace=wrap;html=1;align=center;" vertex="1" parent="1">
          <mxGeometry x="345" y="419" width="100" height="40" as="geometry" />
        </mxCell>
        <mxCell id="Cuiy6yaqhkZlzU2exh9V-27" value="" style="endArrow=none;html=1;rounded=0;exitX=1;exitY=0.5;exitDx=0;exitDy=0;entryX=0;entryY=0.75;entryDx=0;entryDy=0;" edge="1" parent="1" source="Cuiy6yaqhkZlzU2exh9V-26" target="Cuiy6yaqhkZlzU2exh9V-14">
          <mxGeometry width="50" height="50" relative="1" as="geometry">
            <mxPoint x="445" y="509" as="sourcePoint" />
            <mxPoint x="560" y="459" as="targetPoint" />
          </mxGeometry>
        </mxCell>
        <mxCell id="Cuiy6yaqhkZlzU2exh9V-28" value="" style="endArrow=none;html=1;rounded=0;exitX=0;exitY=0.25;exitDx=0;exitDy=0;entryX=1;entryY=0.5;entryDx=0;entryDy=0;" edge="1" parent="1" source="Cuiy6yaqhkZlzU2exh9V-14" target="Cuiy6yaqhkZlzU2exh9V-25">
          <mxGeometry width="50" height="50" relative="1" as="geometry">
            <mxPoint x="455" y="519" as="sourcePoint" />
            <mxPoint x="570" y="469" as="targetPoint" />
          </mxGeometry>
        </mxCell>
        <mxCell id="Cuiy6yaqhkZlzU2exh9V-29" value="" style="endArrow=none;html=1;rounded=0;exitX=0.25;exitY=0;exitDx=0;exitDy=0;entryX=0.5;entryY=1;entryDx=0;entryDy=0;" edge="1" parent="1" source="Cuiy6yaqhkZlzU2exh9V-14" target="Cuiy6yaqhkZlzU2exh9V-24">
          <mxGeometry width="50" height="50" relative="1" as="geometry">
            <mxPoint x="465" y="529" as="sourcePoint" />
            <mxPoint x="580" y="479" as="targetPoint" />
          </mxGeometry>
        </mxCell>
        <mxCell id="Cuiy6yaqhkZlzU2exh9V-30" value="" style="endArrow=none;html=1;rounded=0;entryX=0.5;entryY=1;entryDx=0;entryDy=0;exitX=0.75;exitY=0;exitDx=0;exitDy=0;" edge="1" parent="1" source="Cuiy6yaqhkZlzU2exh9V-14" target="Cuiy6yaqhkZlzU2exh9V-22">
          <mxGeometry width="50" height="50" relative="1" as="geometry">
            <mxPoint x="475" y="539" as="sourcePoint" />
            <mxPoint x="590" y="489" as="targetPoint" />
          </mxGeometry>
        </mxCell>
        <mxCell id="Cuiy6yaqhkZlzU2exh9V-31" value="" style="endArrow=none;html=1;rounded=0;exitX=1;exitY=0.25;exitDx=0;exitDy=0;entryX=0;entryY=0.5;entryDx=0;entryDy=0;" edge="1" parent="1" source="Cuiy6yaqhkZlzU2exh9V-14" target="Cuiy6yaqhkZlzU2exh9V-23">
          <mxGeometry width="50" height="50" relative="1" as="geometry">
            <mxPoint x="485" y="549" as="sourcePoint" />
            <mxPoint x="600" y="499" as="targetPoint" />
          </mxGeometry>
        </mxCell>
        <mxCell id="Cuiy6yaqhkZlzU2exh9V-32" value="" style="endArrow=none;html=1;rounded=0;exitX=1;exitY=0.75;exitDx=0;exitDy=0;entryX=0;entryY=0.5;entryDx=0;entryDy=0;" edge="1" parent="1" source="Cuiy6yaqhkZlzU2exh9V-14" target="Cuiy6yaqhkZlzU2exh9V-21">
          <mxGeometry width="50" height="50" relative="1" as="geometry">
            <mxPoint x="495" y="559" as="sourcePoint" />
            <mxPoint x="610" y="509" as="targetPoint" />
          </mxGeometry>
        </mxCell>
        <mxCell id="Cuiy6yaqhkZlzU2exh9V-33" value="CUSTOMER" style="whiteSpace=wrap;html=1;align=center;" vertex="1" parent="1">
          <mxGeometry x="215" y="100" width="100" height="40" as="geometry" />
        </mxCell>
        <mxCell id="Cuiy6yaqhkZlzU2exh9V-34" value="&lt;u&gt;CustomerId&lt;/u&gt;" style="ellipse;whiteSpace=wrap;html=1;align=center;" vertex="1" parent="1">
          <mxGeometry x="115" y="180" width="100" height="40" as="geometry" />
        </mxCell>
        <mxCell id="Cuiy6yaqhkZlzU2exh9V-35" value="FirstName" style="ellipse;whiteSpace=wrap;html=1;align=center;" vertex="1" parent="1">
          <mxGeometry x="215" y="180" width="100" height="40" as="geometry" />
        </mxCell>
        <mxCell id="Cuiy6yaqhkZlzU2exh9V-36" value="" style="endArrow=none;html=1;rounded=0;exitX=0.5;exitY=0;exitDx=0;exitDy=0;entryX=0.25;entryY=1;entryDx=0;entryDy=0;" edge="1" parent="1" source="Cuiy6yaqhkZlzU2exh9V-34" target="Cuiy6yaqhkZlzU2exh9V-33">
          <mxGeometry width="50" height="50" relative="1" as="geometry">
            <mxPoint x="435" y="160" as="sourcePoint" />
            <mxPoint x="485" y="110" as="targetPoint" />
          </mxGeometry>
        </mxCell>
        <mxCell id="Cuiy6yaqhkZlzU2exh9V-37" value="" style="endArrow=none;html=1;rounded=0;exitX=0.5;exitY=0;exitDx=0;exitDy=0;entryX=0.5;entryY=1;entryDx=0;entryDy=0;" edge="1" parent="1" source="Cuiy6yaqhkZlzU2exh9V-35" target="Cuiy6yaqhkZlzU2exh9V-33">
          <mxGeometry width="50" height="50" relative="1" as="geometry">
            <mxPoint x="-5" y="200" as="sourcePoint" />
            <mxPoint x="50" y="140" as="targetPoint" />
          </mxGeometry>
        </mxCell>
        <mxCell id="Cuiy6yaqhkZlzU2exh9V-38" value="LastName" style="ellipse;whiteSpace=wrap;html=1;align=center;" vertex="1" parent="1">
          <mxGeometry x="315" y="180" width="100" height="40" as="geometry" />
        </mxCell>
        <mxCell id="Cuiy6yaqhkZlzU2exh9V-39" value="" style="endArrow=none;html=1;rounded=0;exitX=0.5;exitY=0;exitDx=0;exitDy=0;entryX=0.75;entryY=1;entryDx=0;entryDy=0;" edge="1" parent="1" source="Cuiy6yaqhkZlzU2exh9V-38" target="Cuiy6yaqhkZlzU2exh9V-33">
          <mxGeometry width="50" height="50" relative="1" as="geometry">
            <mxPoint x="-85" y="200" as="sourcePoint" />
            <mxPoint x="40" y="160" as="targetPoint" />
          </mxGeometry>
        </mxCell>
        <mxCell id="Cuiy6yaqhkZlzU2exh9V-40" value="Company" style="ellipse;whiteSpace=wrap;html=1;align=center;" vertex="1" parent="1">
          <mxGeometry x="385" y="140" width="100" height="40" as="geometry" />
        </mxCell>
        <mxCell id="Cuiy6yaqhkZlzU2exh9V-41" value="City" style="ellipse;whiteSpace=wrap;html=1;align=center;" vertex="1" parent="1">
          <mxGeometry x="385" y="60" width="100" height="40" as="geometry" />
        </mxCell>
        <mxCell id="Cuiy6yaqhkZlzU2exh9V-42" value="Address" style="ellipse;whiteSpace=wrap;html=1;align=center;" vertex="1" parent="1">
          <mxGeometry x="385" y="100" width="100" height="40" as="geometry" />
        </mxCell>
        <mxCell id="Cuiy6yaqhkZlzU2exh9V-43" value="State" style="ellipse;whiteSpace=wrap;html=1;align=center;" vertex="1" parent="1">
          <mxGeometry x="315" y="20" width="100" height="40" as="geometry" />
        </mxCell>
        <mxCell id="Cuiy6yaqhkZlzU2exh9V-44" value="Country" style="ellipse;whiteSpace=wrap;html=1;align=center;" vertex="1" parent="1">
          <mxGeometry x="215" y="20" width="100" height="40" as="geometry" />
        </mxCell>
        <mxCell id="Cuiy6yaqhkZlzU2exh9V-45" value="PostalCode" style="ellipse;whiteSpace=wrap;html=1;align=center;" vertex="1" parent="1">
          <mxGeometry x="115" y="20" width="100" height="40" as="geometry" />
        </mxCell>
        <mxCell id="Cuiy6yaqhkZlzU2exh9V-46" value="" style="endArrow=none;html=1;rounded=0;exitX=0.5;exitY=1;exitDx=0;exitDy=0;entryX=0.25;entryY=0;entryDx=0;entryDy=0;" edge="1" parent="1" source="Cuiy6yaqhkZlzU2exh9V-45" target="Cuiy6yaqhkZlzU2exh9V-33">
          <mxGeometry width="50" height="50" relative="1" as="geometry">
            <mxPoint x="135" y="200" as="sourcePoint" />
            <mxPoint x="250" y="150" as="targetPoint" />
          </mxGeometry>
        </mxCell>
        <mxCell id="Cuiy6yaqhkZlzU2exh9V-47" value="" style="endArrow=none;html=1;rounded=0;exitX=0.5;exitY=0;exitDx=0;exitDy=0;entryX=0.5;entryY=1;entryDx=0;entryDy=0;" edge="1" parent="1" source="Cuiy6yaqhkZlzU2exh9V-33" target="Cuiy6yaqhkZlzU2exh9V-44">
          <mxGeometry width="50" height="50" relative="1" as="geometry">
            <mxPoint x="145" y="210" as="sourcePoint" />
            <mxPoint x="260" y="160" as="targetPoint" />
          </mxGeometry>
        </mxCell>
        <mxCell id="Cuiy6yaqhkZlzU2exh9V-48" value="" style="endArrow=none;html=1;rounded=0;exitX=0.75;exitY=0;exitDx=0;exitDy=0;entryX=0.5;entryY=1;entryDx=0;entryDy=0;" edge="1" parent="1" source="Cuiy6yaqhkZlzU2exh9V-33" target="Cuiy6yaqhkZlzU2exh9V-43">
          <mxGeometry width="50" height="50" relative="1" as="geometry">
            <mxPoint x="155" y="220" as="sourcePoint" />
            <mxPoint x="270" y="170" as="targetPoint" />
          </mxGeometry>
        </mxCell>
        <mxCell id="Cuiy6yaqhkZlzU2exh9V-49" value="" style="endArrow=none;html=1;rounded=0;entryX=0;entryY=0.5;entryDx=0;entryDy=0;exitX=1;exitY=0.25;exitDx=0;exitDy=0;" edge="1" parent="1" source="Cuiy6yaqhkZlzU2exh9V-33" target="Cuiy6yaqhkZlzU2exh9V-41">
          <mxGeometry width="50" height="50" relative="1" as="geometry">
            <mxPoint x="295" y="90" as="sourcePoint" />
            <mxPoint x="280" y="180" as="targetPoint" />
          </mxGeometry>
        </mxCell>
        <mxCell id="Cuiy6yaqhkZlzU2exh9V-50" value="" style="endArrow=none;html=1;rounded=0;exitX=1;exitY=0.5;exitDx=0;exitDy=0;entryX=0;entryY=0.5;entryDx=0;entryDy=0;" edge="1" parent="1" source="Cuiy6yaqhkZlzU2exh9V-33" target="Cuiy6yaqhkZlzU2exh9V-42">
          <mxGeometry width="50" height="50" relative="1" as="geometry">
            <mxPoint x="175" y="240" as="sourcePoint" />
            <mxPoint x="290" y="190" as="targetPoint" />
          </mxGeometry>
        </mxCell>
        <mxCell id="Cuiy6yaqhkZlzU2exh9V-51" value="" style="endArrow=none;html=1;rounded=0;exitX=1;exitY=0.75;exitDx=0;exitDy=0;entryX=0;entryY=0.5;entryDx=0;entryDy=0;" edge="1" parent="1" source="Cuiy6yaqhkZlzU2exh9V-33" target="Cuiy6yaqhkZlzU2exh9V-40">
          <mxGeometry width="50" height="50" relative="1" as="geometry">
            <mxPoint x="185" y="250" as="sourcePoint" />
            <mxPoint x="300" y="200" as="targetPoint" />
          </mxGeometry>
        </mxCell>
        <mxCell id="Cuiy6yaqhkZlzU2exh9V-52" value="Email" style="ellipse;whiteSpace=wrap;html=1;align=center;" vertex="1" parent="1">
          <mxGeometry x="25" y="120" width="100" height="40" as="geometry" />
        </mxCell>
        <mxCell id="Cuiy6yaqhkZlzU2exh9V-53" value="Phone" style="ellipse;whiteSpace=wrap;html=1;align=center;" vertex="1" parent="1">
          <mxGeometry x="25" y="40" width="100" height="40" as="geometry" />
        </mxCell>
        <mxCell id="Cuiy6yaqhkZlzU2exh9V-54" value="Fax" style="ellipse;whiteSpace=wrap;html=1;align=center;" vertex="1" parent="1">
          <mxGeometry x="25" y="80" width="100" height="40" as="geometry" />
        </mxCell>
        <mxCell id="Cuiy6yaqhkZlzU2exh9V-55" value="SupportRepId" style="ellipse;whiteSpace=wrap;html=1;align=center;" vertex="1" parent="1">
          <mxGeometry x="25" y="160" width="100" height="40" as="geometry" />
        </mxCell>
        <mxCell id="Cuiy6yaqhkZlzU2exh9V-56" value="" style="endArrow=none;html=1;rounded=0;exitX=1;exitY=0.5;exitDx=0;exitDy=0;entryX=0;entryY=0;entryDx=0;entryDy=0;" edge="1" parent="1" source="Cuiy6yaqhkZlzU2exh9V-53" target="Cuiy6yaqhkZlzU2exh9V-33">
          <mxGeometry width="50" height="50" relative="1" as="geometry">
            <mxPoint x="175" y="70" as="sourcePoint" />
            <mxPoint x="215" y="100" as="targetPoint" />
          </mxGeometry>
        </mxCell>
        <mxCell id="Cuiy6yaqhkZlzU2exh9V-57" value="" style="endArrow=none;html=1;rounded=0;exitX=1;exitY=0.5;exitDx=0;exitDy=0;entryX=0;entryY=0.25;entryDx=0;entryDy=0;" edge="1" parent="1" source="Cuiy6yaqhkZlzU2exh9V-54" target="Cuiy6yaqhkZlzU2exh9V-33">
          <mxGeometry width="50" height="50" relative="1" as="geometry">
            <mxPoint x="185" y="80" as="sourcePoint" />
            <mxPoint x="260" y="120" as="targetPoint" />
          </mxGeometry>
        </mxCell>
        <mxCell id="Cuiy6yaqhkZlzU2exh9V-58" value="" style="endArrow=none;html=1;rounded=0;exitX=1;exitY=0.5;exitDx=0;exitDy=0;entryX=0;entryY=0.75;entryDx=0;entryDy=0;" edge="1" parent="1" source="Cuiy6yaqhkZlzU2exh9V-52" target="Cuiy6yaqhkZlzU2exh9V-33">
          <mxGeometry width="50" height="50" relative="1" as="geometry">
            <mxPoint x="195" y="90" as="sourcePoint" />
            <mxPoint x="270" y="130" as="targetPoint" />
          </mxGeometry>
        </mxCell>
        <mxCell id="Cuiy6yaqhkZlzU2exh9V-59" value="" style="endArrow=none;html=1;rounded=0;exitX=1;exitY=0.5;exitDx=0;exitDy=0;entryX=0;entryY=1;entryDx=0;entryDy=0;" edge="1" parent="1" source="Cuiy6yaqhkZlzU2exh9V-55" target="Cuiy6yaqhkZlzU2exh9V-33">
          <mxGeometry width="50" height="50" relative="1" as="geometry">
            <mxPoint x="205" y="100" as="sourcePoint" />
            <mxPoint x="280" y="140" as="targetPoint" />
          </mxGeometry>
        </mxCell>
        <mxCell id="Cuiy6yaqhkZlzU2exh9V-60" value="EMPLOYEE" style="whiteSpace=wrap;html=1;align=center;" vertex="1" parent="1">
          <mxGeometry x="820" y="120" width="100" height="40" as="geometry" />
        </mxCell>
        <mxCell id="Cuiy6yaqhkZlzU2exh9V-61" value="&lt;u&gt;EmployeeId&lt;/u&gt;" style="ellipse;whiteSpace=wrap;html=1;align=center;" vertex="1" parent="1">
          <mxGeometry x="720" y="200" width="100" height="40" as="geometry" />
        </mxCell>
        <mxCell id="Cuiy6yaqhkZlzU2exh9V-62" value="LastName" style="ellipse;whiteSpace=wrap;html=1;align=center;" vertex="1" parent="1">
          <mxGeometry x="820" y="200" width="100" height="40" as="geometry" />
        </mxCell>
        <mxCell id="Cuiy6yaqhkZlzU2exh9V-63" value="" style="endArrow=none;html=1;rounded=0;exitX=0.5;exitY=0;exitDx=0;exitDy=0;entryX=0.25;entryY=1;entryDx=0;entryDy=0;" edge="1" parent="1" source="Cuiy6yaqhkZlzU2exh9V-61" target="Cuiy6yaqhkZlzU2exh9V-60">
          <mxGeometry width="50" height="50" relative="1" as="geometry">
            <mxPoint x="1040" y="180" as="sourcePoint" />
            <mxPoint x="1090" y="130" as="targetPoint" />
          </mxGeometry>
        </mxCell>
        <mxCell id="Cuiy6yaqhkZlzU2exh9V-64" value="" style="endArrow=none;html=1;rounded=0;exitX=0.5;exitY=0;exitDx=0;exitDy=0;entryX=0.5;entryY=1;entryDx=0;entryDy=0;" edge="1" parent="1" source="Cuiy6yaqhkZlzU2exh9V-62" target="Cuiy6yaqhkZlzU2exh9V-60">
          <mxGeometry width="50" height="50" relative="1" as="geometry">
            <mxPoint x="600" y="220" as="sourcePoint" />
            <mxPoint x="655" y="160" as="targetPoint" />
          </mxGeometry>
        </mxCell>
        <mxCell id="Cuiy6yaqhkZlzU2exh9V-65" value="FirstName" style="ellipse;whiteSpace=wrap;html=1;align=center;" vertex="1" parent="1">
          <mxGeometry x="920" y="200" width="100" height="40" as="geometry" />
        </mxCell>
        <mxCell id="Cuiy6yaqhkZlzU2exh9V-66" value="" style="endArrow=none;html=1;rounded=0;exitX=0.5;exitY=0;exitDx=0;exitDy=0;entryX=0.75;entryY=1;entryDx=0;entryDy=0;" edge="1" parent="1" source="Cuiy6yaqhkZlzU2exh9V-65" target="Cuiy6yaqhkZlzU2exh9V-60">
          <mxGeometry width="50" height="50" relative="1" as="geometry">
            <mxPoint x="520" y="220" as="sourcePoint" />
            <mxPoint x="645" y="180" as="targetPoint" />
          </mxGeometry>
        </mxCell>
        <mxCell id="Cuiy6yaqhkZlzU2exh9V-67" value="Title" style="ellipse;whiteSpace=wrap;html=1;align=center;" vertex="1" parent="1">
          <mxGeometry x="1040" y="190" width="100" height="40" as="geometry" />
        </mxCell>
        <mxCell id="Cuiy6yaqhkZlzU2exh9V-68" value="BirthDate" style="ellipse;whiteSpace=wrap;html=1;align=center;" vertex="1" parent="1">
          <mxGeometry x="1040" y="110" width="100" height="40" as="geometry" />
        </mxCell>
        <mxCell id="Cuiy6yaqhkZlzU2exh9V-69" value="ReportsTo" style="ellipse;whiteSpace=wrap;html=1;align=center;" vertex="1" parent="1">
          <mxGeometry x="1040" y="150" width="100" height="40" as="geometry" />
        </mxCell>
        <mxCell id="Cuiy6yaqhkZlzU2exh9V-70" value="HireDate" style="ellipse;whiteSpace=wrap;html=1;align=center;" vertex="1" parent="1">
          <mxGeometry x="1040" y="70" width="100" height="40" as="geometry" />
        </mxCell>
        <mxCell id="Cuiy6yaqhkZlzU2exh9V-71" value="Address" style="ellipse;whiteSpace=wrap;html=1;align=center;" vertex="1" parent="1">
          <mxGeometry x="1040" y="30" width="100" height="40" as="geometry" />
        </mxCell>
        <mxCell id="Cuiy6yaqhkZlzU2exh9V-72" value="City" style="ellipse;whiteSpace=wrap;html=1;align=center;" vertex="1" parent="1">
          <mxGeometry x="920" y="20" width="100" height="40" as="geometry" />
        </mxCell>
        <mxCell id="Cuiy6yaqhkZlzU2exh9V-73" value="" style="endArrow=none;html=1;rounded=0;exitX=0.5;exitY=1;exitDx=0;exitDy=0;entryX=0.75;entryY=0;entryDx=0;entryDy=0;" edge="1" parent="1" source="Cuiy6yaqhkZlzU2exh9V-72" target="Cuiy6yaqhkZlzU2exh9V-60">
          <mxGeometry width="50" height="50" relative="1" as="geometry">
            <mxPoint x="740" y="220" as="sourcePoint" />
            <mxPoint x="855" y="170" as="targetPoint" />
          </mxGeometry>
        </mxCell>
        <mxCell id="Cuiy6yaqhkZlzU2exh9V-74" value="" style="endArrow=none;html=1;rounded=0;exitX=1;exitY=0;exitDx=0;exitDy=0;entryX=0;entryY=0.5;entryDx=0;entryDy=0;" edge="1" parent="1" source="Cuiy6yaqhkZlzU2exh9V-60" target="Cuiy6yaqhkZlzU2exh9V-71">
          <mxGeometry width="50" height="50" relative="1" as="geometry">
            <mxPoint x="750" y="230" as="sourcePoint" />
            <mxPoint x="865" y="180" as="targetPoint" />
          </mxGeometry>
        </mxCell>
        <mxCell id="Cuiy6yaqhkZlzU2exh9V-75" value="" style="endArrow=none;html=1;rounded=0;exitX=1;exitY=0.25;exitDx=0;exitDy=0;entryX=0;entryY=0.5;entryDx=0;entryDy=0;" edge="1" parent="1" source="Cuiy6yaqhkZlzU2exh9V-60" target="Cuiy6yaqhkZlzU2exh9V-70">
          <mxGeometry width="50" height="50" relative="1" as="geometry">
            <mxPoint x="760" y="240" as="sourcePoint" />
            <mxPoint x="875" y="190" as="targetPoint" />
          </mxGeometry>
        </mxCell>
        <mxCell id="Cuiy6yaqhkZlzU2exh9V-76" value="" style="endArrow=none;html=1;rounded=0;entryX=0;entryY=0.5;entryDx=0;entryDy=0;exitX=1;exitY=0.5;exitDx=0;exitDy=0;" edge="1" parent="1" source="Cuiy6yaqhkZlzU2exh9V-60" target="Cuiy6yaqhkZlzU2exh9V-68">
          <mxGeometry width="50" height="50" relative="1" as="geometry">
            <mxPoint x="900" y="110" as="sourcePoint" />
            <mxPoint x="885" y="200" as="targetPoint" />
          </mxGeometry>
        </mxCell>
        <mxCell id="Cuiy6yaqhkZlzU2exh9V-77" value="" style="endArrow=none;html=1;rounded=0;exitX=1;exitY=0.75;exitDx=0;exitDy=0;entryX=0;entryY=0.5;entryDx=0;entryDy=0;" edge="1" parent="1" source="Cuiy6yaqhkZlzU2exh9V-60" target="Cuiy6yaqhkZlzU2exh9V-69">
          <mxGeometry width="50" height="50" relative="1" as="geometry">
            <mxPoint x="780" y="260" as="sourcePoint" />
            <mxPoint x="895" y="210" as="targetPoint" />
          </mxGeometry>
        </mxCell>
        <mxCell id="Cuiy6yaqhkZlzU2exh9V-78" value="" style="endArrow=none;html=1;rounded=0;exitX=1;exitY=1;exitDx=0;exitDy=0;entryX=0;entryY=0.5;entryDx=0;entryDy=0;" edge="1" parent="1" source="Cuiy6yaqhkZlzU2exh9V-60" target="Cuiy6yaqhkZlzU2exh9V-67">
          <mxGeometry width="50" height="50" relative="1" as="geometry">
            <mxPoint x="790" y="270" as="sourcePoint" />
            <mxPoint x="905" y="220" as="targetPoint" />
          </mxGeometry>
        </mxCell>
        <mxCell id="Cuiy6yaqhkZlzU2exh9V-79" value="PostalCode" style="ellipse;whiteSpace=wrap;html=1;align=center;" vertex="1" parent="1">
          <mxGeometry x="630" y="50" width="100" height="40" as="geometry" />
        </mxCell>
        <mxCell id="Cuiy6yaqhkZlzU2exh9V-80" value="State" style="ellipse;whiteSpace=wrap;html=1;align=center;" vertex="1" parent="1">
          <mxGeometry x="820" y="20" width="100" height="40" as="geometry" />
        </mxCell>
        <mxCell id="Cuiy6yaqhkZlzU2exh9V-81" value="Country" style="ellipse;whiteSpace=wrap;html=1;align=center;" vertex="1" parent="1">
          <mxGeometry x="720" y="20" width="100" height="40" as="geometry" />
        </mxCell>
        <mxCell id="Cuiy6yaqhkZlzU2exh9V-82" value="Phone" style="ellipse;whiteSpace=wrap;html=1;align=center;" vertex="1" parent="1">
          <mxGeometry x="630" y="90" width="100" height="40" as="geometry" />
        </mxCell>
        <mxCell id="Cuiy6yaqhkZlzU2exh9V-83" value="" style="endArrow=none;html=1;rounded=0;exitX=0.5;exitY=1;exitDx=0;exitDy=0;entryX=0.5;entryY=0;entryDx=0;entryDy=0;" edge="1" parent="1" source="Cuiy6yaqhkZlzU2exh9V-80" target="Cuiy6yaqhkZlzU2exh9V-60">
          <mxGeometry width="50" height="50" relative="1" as="geometry">
            <mxPoint x="780" y="90" as="sourcePoint" />
            <mxPoint x="820" y="120" as="targetPoint" />
          </mxGeometry>
        </mxCell>
        <mxCell id="Cuiy6yaqhkZlzU2exh9V-84" value="" style="endArrow=none;html=1;rounded=0;exitX=0.5;exitY=1;exitDx=0;exitDy=0;entryX=0.25;entryY=0;entryDx=0;entryDy=0;" edge="1" parent="1" source="Cuiy6yaqhkZlzU2exh9V-81" target="Cuiy6yaqhkZlzU2exh9V-60">
          <mxGeometry width="50" height="50" relative="1" as="geometry">
            <mxPoint x="790" y="100" as="sourcePoint" />
            <mxPoint x="865" y="140" as="targetPoint" />
          </mxGeometry>
        </mxCell>
        <mxCell id="Cuiy6yaqhkZlzU2exh9V-85" value="" style="endArrow=none;html=1;rounded=0;exitX=1;exitY=0.5;exitDx=0;exitDy=0;entryX=0;entryY=0;entryDx=0;entryDy=0;" edge="1" parent="1" source="Cuiy6yaqhkZlzU2exh9V-79" target="Cuiy6yaqhkZlzU2exh9V-60">
          <mxGeometry width="50" height="50" relative="1" as="geometry">
            <mxPoint x="800" y="110" as="sourcePoint" />
            <mxPoint x="875" y="150" as="targetPoint" />
          </mxGeometry>
        </mxCell>
        <mxCell id="Cuiy6yaqhkZlzU2exh9V-86" value="" style="endArrow=none;html=1;rounded=0;exitX=1;exitY=0.5;exitDx=0;exitDy=0;entryX=0;entryY=0.25;entryDx=0;entryDy=0;" edge="1" parent="1" source="Cuiy6yaqhkZlzU2exh9V-82" target="Cuiy6yaqhkZlzU2exh9V-60">
          <mxGeometry width="50" height="50" relative="1" as="geometry">
            <mxPoint x="810" y="120" as="sourcePoint" />
            <mxPoint x="885" y="160" as="targetPoint" />
          </mxGeometry>
        </mxCell>
        <mxCell id="Cuiy6yaqhkZlzU2exh9V-87" value="Fax" style="ellipse;whiteSpace=wrap;html=1;align=center;" vertex="1" parent="1">
          <mxGeometry x="630" y="130" width="100" height="40" as="geometry" />
        </mxCell>
        <mxCell id="Cuiy6yaqhkZlzU2exh9V-88" value="Email" style="ellipse;whiteSpace=wrap;html=1;align=center;" vertex="1" parent="1">
          <mxGeometry x="630" y="170" width="100" height="40" as="geometry" />
        </mxCell>
        <mxCell id="Cuiy6yaqhkZlzU2exh9V-89" value="" style="endArrow=none;html=1;rounded=0;exitX=1;exitY=0.5;exitDx=0;exitDy=0;entryX=0;entryY=0.75;entryDx=0;entryDy=0;" edge="1" parent="1" source="Cuiy6yaqhkZlzU2exh9V-87" target="Cuiy6yaqhkZlzU2exh9V-60">
          <mxGeometry width="50" height="50" relative="1" as="geometry">
            <mxPoint x="740" y="110" as="sourcePoint" />
            <mxPoint x="830" y="140" as="targetPoint" />
          </mxGeometry>
        </mxCell>
        <mxCell id="Cuiy6yaqhkZlzU2exh9V-90" value="" style="endArrow=none;html=1;rounded=0;exitX=1;exitY=0.5;exitDx=0;exitDy=0;entryX=0;entryY=1;entryDx=0;entryDy=0;" edge="1" parent="1" source="Cuiy6yaqhkZlzU2exh9V-88" target="Cuiy6yaqhkZlzU2exh9V-60">
          <mxGeometry width="50" height="50" relative="1" as="geometry">
            <mxPoint x="750" y="120" as="sourcePoint" />
            <mxPoint x="840" y="150" as="targetPoint" />
          </mxGeometry>
        </mxCell>
        <mxCell id="Cuiy6yaqhkZlzU2exh9V-98" value="INVOICE" style="whiteSpace=wrap;html=1;align=center;" vertex="1" parent="1">
          <mxGeometry x="200" y="680" width="100" height="40" as="geometry" />
        </mxCell>
        <mxCell id="Cuiy6yaqhkZlzU2exh9V-99" value="&lt;u&gt;InvoiceId&lt;/u&gt;" style="ellipse;whiteSpace=wrap;html=1;align=center;" vertex="1" parent="1">
          <mxGeometry x="60" y="770" width="100" height="40" as="geometry" />
        </mxCell>
        <mxCell id="Cuiy6yaqhkZlzU2exh9V-100" value="InvoiceDate" style="ellipse;whiteSpace=wrap;html=1;align=center;" vertex="1" parent="1">
          <mxGeometry x="200" y="770" width="100" height="40" as="geometry" />
        </mxCell>
        <mxCell id="Cuiy6yaqhkZlzU2exh9V-101" value="" style="endArrow=none;html=1;rounded=0;exitX=0.5;exitY=0;exitDx=0;exitDy=0;entryX=0.25;entryY=1;entryDx=0;entryDy=0;" edge="1" parent="1" source="Cuiy6yaqhkZlzU2exh9V-99" target="Cuiy6yaqhkZlzU2exh9V-98">
          <mxGeometry width="50" height="50" relative="1" as="geometry">
            <mxPoint x="420" y="740" as="sourcePoint" />
            <mxPoint x="470" y="690" as="targetPoint" />
          </mxGeometry>
        </mxCell>
        <mxCell id="Cuiy6yaqhkZlzU2exh9V-102" value="" style="endArrow=none;html=1;rounded=0;exitX=0.5;exitY=0;exitDx=0;exitDy=0;entryX=0.5;entryY=1;entryDx=0;entryDy=0;" edge="1" parent="1" source="Cuiy6yaqhkZlzU2exh9V-100" target="Cuiy6yaqhkZlzU2exh9V-98">
          <mxGeometry width="50" height="50" relative="1" as="geometry">
            <mxPoint x="-20" y="780" as="sourcePoint" />
            <mxPoint x="35" y="720" as="targetPoint" />
          </mxGeometry>
        </mxCell>
        <mxCell id="Cuiy6yaqhkZlzU2exh9V-103" value="BillingAddress" style="ellipse;whiteSpace=wrap;html=1;align=center;" vertex="1" parent="1">
          <mxGeometry x="340" y="770" width="100" height="40" as="geometry" />
        </mxCell>
        <mxCell id="Cuiy6yaqhkZlzU2exh9V-104" value="" style="endArrow=none;html=1;rounded=0;exitX=0.5;exitY=0;exitDx=0;exitDy=0;entryX=0.75;entryY=1;entryDx=0;entryDy=0;" edge="1" parent="1" source="Cuiy6yaqhkZlzU2exh9V-103" target="Cuiy6yaqhkZlzU2exh9V-98">
          <mxGeometry width="50" height="50" relative="1" as="geometry">
            <mxPoint x="-100" y="780" as="sourcePoint" />
            <mxPoint x="25" y="740" as="targetPoint" />
          </mxGeometry>
        </mxCell>
        <mxCell id="Cuiy6yaqhkZlzU2exh9V-105" value="BillingCity" style="ellipse;whiteSpace=wrap;html=1;align=center;" vertex="1" parent="1">
          <mxGeometry x="400" y="690" width="100" height="40" as="geometry" />
        </mxCell>
        <mxCell id="Cuiy6yaqhkZlzU2exh9V-106" value="BillingCountry" style="ellipse;whiteSpace=wrap;html=1;align=center;" vertex="1" parent="1">
          <mxGeometry x="280" y="560" width="100" height="40" as="geometry" />
        </mxCell>
        <mxCell id="Cuiy6yaqhkZlzU2exh9V-107" value="BillingState" style="ellipse;whiteSpace=wrap;html=1;align=center;" vertex="1" parent="1">
          <mxGeometry x="400" y="600" width="100" height="40" as="geometry" />
        </mxCell>
        <mxCell id="Cuiy6yaqhkZlzU2exh9V-108" value="BillingPostalCode" style="ellipse;whiteSpace=wrap;html=1;align=center;" vertex="1" parent="1">
          <mxGeometry x="130" y="560" width="100" height="40" as="geometry" />
        </mxCell>
        <mxCell id="Cuiy6yaqhkZlzU2exh9V-109" value="Total" style="ellipse;whiteSpace=wrap;html=1;align=center;" vertex="1" parent="1">
          <mxGeometry x="20" y="600" width="100" height="40" as="geometry" />
        </mxCell>
        <mxCell id="Cuiy6yaqhkZlzU2exh9V-110" value="CustomerId" style="ellipse;whiteSpace=wrap;html=1;align=center;" vertex="1" parent="1">
          <mxGeometry x="20" y="690" width="100" height="40" as="geometry" />
        </mxCell>
        <mxCell id="Cuiy6yaqhkZlzU2exh9V-111" value="" style="endArrow=none;html=1;rounded=0;exitX=1;exitY=0.5;exitDx=0;exitDy=0;entryX=0;entryY=0.75;entryDx=0;entryDy=0;" edge="1" parent="1" source="Cuiy6yaqhkZlzU2exh9V-110" target="Cuiy6yaqhkZlzU2exh9V-98">
          <mxGeometry width="50" height="50" relative="1" as="geometry">
            <mxPoint x="120" y="780" as="sourcePoint" />
            <mxPoint x="235" y="730" as="targetPoint" />
          </mxGeometry>
        </mxCell>
        <mxCell id="Cuiy6yaqhkZlzU2exh9V-112" value="" style="endArrow=none;html=1;rounded=0;exitX=0;exitY=0.25;exitDx=0;exitDy=0;entryX=1;entryY=0.5;entryDx=0;entryDy=0;" edge="1" parent="1" source="Cuiy6yaqhkZlzU2exh9V-98" target="Cuiy6yaqhkZlzU2exh9V-109">
          <mxGeometry width="50" height="50" relative="1" as="geometry">
            <mxPoint x="130" y="790" as="sourcePoint" />
            <mxPoint x="245" y="740" as="targetPoint" />
          </mxGeometry>
        </mxCell>
        <mxCell id="Cuiy6yaqhkZlzU2exh9V-113" value="" style="endArrow=none;html=1;rounded=0;exitX=0.25;exitY=0;exitDx=0;exitDy=0;entryX=0.5;entryY=1;entryDx=0;entryDy=0;" edge="1" parent="1" source="Cuiy6yaqhkZlzU2exh9V-98" target="Cuiy6yaqhkZlzU2exh9V-108">
          <mxGeometry width="50" height="50" relative="1" as="geometry">
            <mxPoint x="140" y="800" as="sourcePoint" />
            <mxPoint x="255" y="750" as="targetPoint" />
          </mxGeometry>
        </mxCell>
        <mxCell id="Cuiy6yaqhkZlzU2exh9V-114" value="" style="endArrow=none;html=1;rounded=0;entryX=0.5;entryY=1;entryDx=0;entryDy=0;exitX=0.75;exitY=0;exitDx=0;exitDy=0;" edge="1" parent="1" source="Cuiy6yaqhkZlzU2exh9V-98" target="Cuiy6yaqhkZlzU2exh9V-106">
          <mxGeometry width="50" height="50" relative="1" as="geometry">
            <mxPoint x="150" y="810" as="sourcePoint" />
            <mxPoint x="265" y="760" as="targetPoint" />
          </mxGeometry>
        </mxCell>
        <mxCell id="Cuiy6yaqhkZlzU2exh9V-115" value="" style="endArrow=none;html=1;rounded=0;exitX=1;exitY=0.25;exitDx=0;exitDy=0;entryX=0;entryY=0.5;entryDx=0;entryDy=0;" edge="1" parent="1" source="Cuiy6yaqhkZlzU2exh9V-98" target="Cuiy6yaqhkZlzU2exh9V-107">
          <mxGeometry width="50" height="50" relative="1" as="geometry">
            <mxPoint x="160" y="820" as="sourcePoint" />
            <mxPoint x="275" y="770" as="targetPoint" />
          </mxGeometry>
        </mxCell>
        <mxCell id="Cuiy6yaqhkZlzU2exh9V-116" value="" style="endArrow=none;html=1;rounded=0;exitX=1;exitY=0.75;exitDx=0;exitDy=0;entryX=0;entryY=0.5;entryDx=0;entryDy=0;" edge="1" parent="1" source="Cuiy6yaqhkZlzU2exh9V-98" target="Cuiy6yaqhkZlzU2exh9V-105">
          <mxGeometry width="50" height="50" relative="1" as="geometry">
            <mxPoint x="170" y="830" as="sourcePoint" />
            <mxPoint x="285" y="780" as="targetPoint" />
          </mxGeometry>
        </mxCell>
      </root>
    </mxGraphModel>
  </diagram>
</mxfile>
